<svg width="342" height="484" viewBox="0 0 342 484" fill="none" xmlns="http://www.w3.org/2000/svg">
<path fill-rule="evenodd" clip-rule="evenodd" d="M67.6027 208.742L59.0495 211.209C44.2887 215.466 28.8839 206.957 24.6272 192.196C21.5809 181.632 25.0447 170.261 33.4555 163.194L148.519 66.4605C154.547 61.3984 162.43 59.1251 170.228 60.2001L319.148 80.8072C330.036 82.3284 339.017 90.0915 342.064 100.655C346.32 115.416 337.812 130.821 323.051 135.077L314.498 137.544L330.67 193.624C317.755 201.169 307.824 212.438 301.705 225.663L279.227 147.715L243.956 157.886L284.641 298.969L249.37 309.14L208.686 168.058L173.415 178.229L209.014 301.676C211.811 311.376 206.164 321.6 196.464 324.397C186.765 327.194 176.54 321.547 173.743 311.848L138.144 188.4L102.873 198.571L138.473 322.019C141.27 331.718 135.622 341.943 125.923 344.74C116.223 347.537 105.999 341.889 103.202 332.19L67.6027 208.742ZM88.2737 412.903C85.4766 403.204 91.124 392.98 100.823 390.182L314.74 328.494C300.126 342.068 291.063 357.671 294.755 372.461L110.995 425.453C101.295 428.25 91.0708 422.603 88.2737 412.903ZM341.299 230.482C332.498 239.706 328.698 253.027 332.462 266.077C334.292 272.426 337.836 278.089 342.309 282.339C350.42 289.933 361.7 293.939 373.217 292.146L373.393 292.095C374.855 291.865 376.316 291.634 377.904 291.176C380.902 290.312 383.622 289.145 386.063 287.677C400.287 279.373 407.733 262.135 403.003 245.734C397.409 226.336 376.96 215.041 357.561 220.635C351.212 222.466 345.549 226.009 341.299 230.482ZM388.424 326.346C393.362 324.922 399.511 323.722 406.215 323.126C431.244 320.493 463.749 323.917 469.038 342.258L478.955 376.647L337.872 417.332L327.956 382.943C325.87 375.713 328.499 368.269 333.902 361.171C345.939 345.284 371.847 331.127 388.071 326.448L388.424 326.346Z" fill="#113A97" fill-opacity="0.141718"/>
</svg>
