<svg width="450" height="447" viewBox="0 0 450 447" fill="none" xmlns="http://www.w3.org/2000/svg">
<path opacity="0.4" fill-rule="evenodd" clip-rule="evenodd" d="M9.58258 164.3C4.2882 148.924 12.6609 132.11 28.2925 126.728L297.071 34.18C312.702 28.7976 329.652 36.892 334.946 52.268L339.737 66.1829L14.3739 178.214L9.58258 164.3ZM386.708 112.717L372.334 70.9714L386.658 66.0391C402.487 60.5889 419.595 68.6286 424.89 84.0047L429.681 97.9198L386.708 112.717ZM29.8971 221.532L73.4799 348.105C78.8309 363.646 95.8259 371.873 111.457 366.491L380.236 273.943C395.867 268.56 404.194 251.614 398.843 236.074L355.26 109.5L29.8971 221.532ZM436.513 254.539L402.481 155.702L444.919 141.089L493.537 282.285C498.909 297.887 490.599 314.883 474.968 320.266L206.189 412.813C190.558 418.196 173.546 409.918 168.173 394.316L163.312 380.197L417.944 292.52C433.575 287.137 441.885 270.141 436.513 254.539Z" fill="#102983" fill-opacity="0.172525"/>
</svg>
