<svg width="127" height="127" viewBox="0 0 127 127" fill="none" xmlns="http://www.w3.org/2000/svg">
<circle opacity="0.2" cx="63.5" cy="63.5" r="63.5" fill="white"/>
<circle cx="63.5" cy="63.5" r="42.5" fill="white"/>
<path d="M72.2188 78.9336C73.9766 80.1445 75.5977 81.0299 77.082 81.5898L75.9688 84.2266C73.9115 83.4844 71.8607 82.3125 69.8164 80.7109C67.694 81.8958 65.3503 82.4883 62.7852 82.4883C60.194 82.4883 57.8438 81.8633 55.7344 80.6133C53.625 79.3633 51.9974 77.6055 50.8516 75.3398C49.7188 73.0742 49.1523 70.5221 49.1523 67.6836C49.1523 64.8581 49.7253 62.2865 50.8711 59.9688C52.0169 57.651 53.6445 55.8867 55.7539 54.6758C57.8763 53.4648 60.2461 52.8594 62.8633 52.8594C65.5065 52.8594 67.8893 53.4909 70.0117 54.7539C72.1341 56.0039 73.7487 57.7617 74.8555 60.0273C75.9753 62.2799 76.5352 64.8255 76.5352 67.6641C76.5352 70.0208 76.1771 72.1432 75.4609 74.0312C74.7448 75.9062 73.6641 77.5404 72.2188 78.9336ZM63.8789 74.0898C66.0664 74.7018 67.8698 75.6133 69.2891 76.8242C71.5156 74.793 72.6289 71.7396 72.6289 67.6641C72.6289 65.3464 72.2318 63.3216 71.4375 61.5898C70.6562 59.8581 69.5039 58.5169 67.9805 57.5664C66.4701 56.6029 64.7708 56.1211 62.8828 56.1211C60.0573 56.1211 57.7135 57.0911 55.8516 59.0312C53.9896 60.9583 53.0586 63.8424 53.0586 67.6836C53.0586 71.4076 53.9766 74.2656 55.8125 76.2578C57.6615 78.25 60.0182 79.2461 62.8828 79.2461C64.237 79.2461 65.513 78.9922 66.7109 78.4844C65.526 77.7161 64.276 77.1693 62.9609 76.8438L63.8789 74.0898Z" fill="#67C47A"/>
</svg>
